# xmcd
#
# Track frame offsets:
#	150
#	16626
#	31672
#	55503
#	69499
#	83354
#	100471
#	120847
#	157147
#
# Disc length: 2353 seconds
#
# Revision: 0
# Processed by: cddbd v1.5.2PL0 Copyright (c) Steve Scherf et al.
# Submitted via: EasyCDDAExtractor 11.5.3.1
#
DISCID=58092f09
DTITLE=D. J. Rogers
DYEAR=1973
DGENRE=soul
TTITLE0=Listen to the Message
TTITLE1=Where There's a Will
TTITLE2=Take Time
TTITLE3=Watch Out for the Riders
TTITLE4=March on
TTITLE5=Celebration
TTITLE6=It's All Over
TTITLE7=Don't You Want to Ride
TTITLE8=Bail Out
EXTD=
EXTT0=
EXTT1=
EXTT2=
EXTT3=
EXTT4=
EXTT5=
EXTT6=
EXTT7=
EXTT8=
PLAYORDER=
